<svg xmlns="http://www.w3.org/2000/svg" xmlns:xlink="http://www.w3.org/1999/xlink" viewBox="0,0,256,256" width="48px" height="48px"><defs><linearGradient x1="6" y1="24" x2="42" y2="24" gradientUnits="userSpaceOnUse" id="color-1"><stop offset="0" stop-color="#fede00"></stop><stop offset="1" stop-color="#ffd000"></stop></linearGradient></defs><g fill="none" fill-rule="nonzero" stroke="none" stroke-width="1" stroke-linecap="butt" stroke-linejoin="miter" stroke-miterlimit="10" stroke-dasharray="" stroke-dashoffset="0" font-family="none" font-weight="none" font-size="none" text-anchor="none" style="mix-blend-mode: normal"><g transform="scale(5.33333,5.33333)"><path d="M9,42h23l10,-10v-23c0,-1.7 -1.3,-3 -3,-3h-30c-1.7,0 -3,1.3 -3,3v30c0,1.7 1.3,3 3,3z" fill="url(#color-1)"></path><path d="M23.641,10.006c-5.281,0.183 -9.605,4.634 -9.641,9.924c-0.023,3.703 1.877,7.008 5,8.774v6.796c0,0.827 0.673,1.5 1.5,1.5h0.5v0.5c0,0.827 0.673,1.5 1.5,1.5h3c0.827,0 1.5,-0.673 1.5,-1.5v-0.5h0.5c0.827,0 1.5,-0.673 1.5,-1.5v-6.81c3.143,-1.851 5,-5.057 5,-8.69c0,-5.634 -4.709,-10.164 -10.359,-9.994zM21.777,25.474c-2.33,-0.95 -3.777,-3.085 -3.777,-5.574c0,-3.364 2.636,-6 6,-6c3.364,0 6,2.636 6,6c0,2.489 -1.447,4.625 -3.849,5.606l-1.151,0.577v2.917h-2v-2.917z" fill="#000000" opacity="0.05"></path><path d="M31,42v-8.8c0,-1.215 0.985,-2.2 2.2,-2.2h8.8v1l-9.997,10z" fill="#000000" opacity="0.05"></path><path d="M23.657,10.506c-5.017,0.173 -9.124,4.402 -9.157,9.427c-0.023,3.619 1.885,6.836 5,8.474v7.093c0,0.551 0.448,1 1,1h1v1c0,0.551 0.448,1 1,1h3c0.552,0 1,-0.449 1,-1v-1h1c0.552,0 1,-0.449 1,-1v-7.1c3.137,-1.736 5,-4.854 5,-8.4c0,-5.353 -4.437,-9.7 -9.843,-9.494zM21.589,25.937c-2.523,-1.028 -4.089,-3.341 -4.089,-6.037c0,-3.645 2.855,-6.5 6.5,-6.5c3.645,0 6.5,2.855 6.5,6.5c0,2.696 -1.566,5.009 -4.124,6.053l-0.876,0.439v3.108h-3v-3.108zM25.5,32.5v1h-3v-1z" fill="#000000" opacity="0.07"></path><path d="M23.675,11.006c-4.749,0.164 -8.643,4.179 -8.674,8.931c-0.023,3.526 1.881,6.654 5,8.163v7.4c0,0.276 0.224,0.5 0.5,0.5h1.499v1.5c0,0.276 0.224,0.5 0.5,0.5h3c0.276,0 0.5,-0.224 0.5,-0.5v-1.5h1.5c0.276,0 0.5,-0.224 0.5,-0.5v-7.4c3.1,-1.6 5,-4.6 5,-8.1c0,-5.108 -4.175,-9.172 -9.325,-8.994zM22,34v-2h4v2zM26.6,26.4l-0.6,0.3v3.3h-4v-3.3l-0.6,-0.3c-2.7,-1.1 -4.4,-3.6 -4.4,-6.5c0,-3.9 3.1,-7 7,-7c3.9,0 7,3.1 7,7c0,2.9 -1.7,5.4 -4.4,6.5z" fill="#ffffff"></path><path d="M31.5,42v-8.4c0,-1.16 0.94,-2.1 2.1,-2.1h8.4v0.5l-10,10z" fill="#000000" opacity="0.07"></path><path d="M32,42v-8c0,-1.105 0.895,-2 2,-2h8z" fill="#fee119"></path></g></g></svg>